<?xml version="1.0" standalone="no"?><!DOCTYPE svg PUBLIC "-//W3C//DTD SVG 1.1//EN" "http://www.w3.org/Graphics/SVG/1.1/DTD/svg11.dtd"><svg t="1533351243734" class="icon" style="" viewBox="0 0 1024 1024" version="1.1" xmlns="http://www.w3.org/2000/svg" p-id="9020" xmlns:xlink="http://www.w3.org/1999/xlink" width="32" height="32"><defs><style type="text/css"></style></defs><path d="M0.4335 1.257151h1021.478473v1021.492923H0.4335z" fill="#bfbfbf" p-id="9021" data-spm-anchor-id="a313x.7781069.0.i11" class="selected"></path><path d="M0.4335 1.257151l1021.471248 1021.485698M0.4335 1022.742849L1021.904748 1.257151" fill="#769AFF" p-id="9022"></path><path d="M364.927792 274.420151h497.817315a43.350032 43.350032 0 0 0 0-86.700064H364.927792a43.350032 43.350032 0 0 0 0 86.700064zM862.745107 470.88972H364.927792a43.350032 43.350032 0 0 0 0 86.700063h497.817315a43.350032 43.350032 0 0 0 0-86.700063zM862.745107 754.066577H364.927792a43.350032 43.350032 0 0 0 0 86.700064h497.817315a43.350032 43.350032 0 0 0 0-86.700064z" fill="#FFFFFF" p-id="9023"></path><path d="M203.391124 231.070119m-76.585056 0a76.585056 76.585056 0 1 0 153.170112 0 76.585056 76.585056 0 1 0-153.170112 0Z" fill="#FFFFFF" p-id="9024"></path><path d="M203.391124 512.845326m-76.585056 0a76.585056 76.585056 0 1 0 153.170112 0 76.585056 76.585056 0 1 0-153.170112 0Z" fill="#FFFFFF" p-id="9025"></path><path d="M203.391124 794.620532m-76.585056 0a76.585056 76.585056 0 1 0 153.170112 0 76.585056 76.585056 0 1 0-153.170112 0Z" fill="#FFFFFF" p-id="9026"></path></svg>